<svg id="Layer_1" data-name="Layer 1" xmlns="http://www.w3.org/2000/svg" viewBox="0 0 612 242.02"><defs><style>.cls-1{fill:#231f20;}</style></defs><path class="cls-1" d="M83.66,45A47.2,47.2,0,0,1,98,79.63a47.22,47.22,0,0,1-14.36,34.65A47.24,47.24,0,0,1,49,128.64a47.22,47.22,0,0,1-34.65-14.36A47.22,47.22,0,0,1,0,79.63,47.2,47.2,0,0,1,14.36,45,47.18,47.18,0,0,1,49,30.63,47.2,47.2,0,0,1,83.66,45Zm-4.33,65A41.31,41.31,0,0,0,91.89,79.63,41.32,41.32,0,0,0,79.33,49.31,41.32,41.32,0,0,0,49,36.75,41.31,41.31,0,0,0,18.69,49.31,41.28,41.28,0,0,0,6.13,79.63,41.27,41.27,0,0,0,18.69,110,41.31,41.31,0,0,0,49,122.51,41.32,41.32,0,0,0,79.33,110Z"/><path class="cls-1" d="M140.9,79.63v45.94h-6.13V79.63A47.2,47.2,0,0,1,149.13,45a49,49,0,0,1,69.29,0,47.17,47.17,0,0,1,14.37,34.64v45.94h-6.13V79.63A41.32,41.32,0,0,0,214.1,49.31a42.89,42.89,0,0,0-60.65,0A41.31,41.31,0,0,0,140.9,79.63Z"/><path class="cls-1" d="M318.54,122.51A42.87,42.87,0,0,0,360,90.73l5.9,1.61a49,49,0,0,1-96.33-12.71,50.27,50.27,0,0,1,.38-6.12A47.52,47.52,0,0,1,286,43a48.91,48.91,0,0,1,65.09,0,47.48,47.48,0,0,1,16.08,30.48,48.34,48.34,0,0,1,.38,6.12H275.67A41.3,41.3,0,0,0,288.22,110,41.32,41.32,0,0,0,318.54,122.51Zm0-85.76a42.88,42.88,0,0,0-42.42,36.76H361a42.88,42.88,0,0,0-42.43-36.76Z"/><path class="cls-1" d="M441.07,128.64a35.24,35.24,0,0,1-26-10.8,35.26,35.26,0,0,1-10.79-26V36.75a35.51,35.51,0,0,1,10.79-26A35.4,35.4,0,0,1,441.07,0a36.09,36.09,0,0,1,18.6,5.05,36.43,36.43,0,0,1,13.25,13.33l-5.28,3.06a29.89,29.89,0,0,0-11-11.1,30.23,30.23,0,0,0-15.54-4.21,29.55,29.55,0,0,0-21.68,9,29.54,29.54,0,0,0-8.95,21.67V71.59a35.74,35.74,0,0,1,6.35-7.27,34.1,34.1,0,0,1,5-3.75,35.86,35.86,0,0,1,19.23-5.44,36.24,36.24,0,0,1,19.29,5.44,39.56,39.56,0,0,1,5.05,3.75,35.21,35.21,0,0,1,12.41,27.56,36.74,36.74,0,0,1-36.75,36.76ZM421.84,68.07a29.16,29.16,0,0,0-11.4,23.81,30.63,30.63,0,1,0,61.25,0,29.21,29.21,0,0,0-11.33-23.81,31,31,0,0,0-5.9-3.75,30.46,30.46,0,0,0-13.39-3.06,30,30,0,0,0-13.33,3.06A28.39,28.39,0,0,0,421.84,68.07Z"/><path class="cls-1" d="M217.84,158.37a49,49,0,0,1,0,69.29,49,49,0,0,1-69.3,0,49,49,0,0,1,0-69.29,49,49,0,0,1,69.3,0Zm-4.33,65a42.88,42.88,0,0,0,0-60.64,42.88,42.88,0,0,0-60.64,0,42.88,42.88,0,0,0,0,60.64,42.9,42.9,0,0,0,60.64,0Z"/><path class="cls-1" d="M275.08,193v46H269V193a49,49,0,0,1,83.66-34.64A47.21,47.21,0,0,1,367,193v46h-6.13V193a42.88,42.88,0,0,0-73.2-30.31A41.26,41.26,0,0,0,275.08,193Z"/><path class="cls-1" d="M452.73,235.89a42.87,42.87,0,0,0,41.43-31.77l5.89,1.61A49,49,0,0,1,403.72,193a50.4,50.4,0,0,1,.38-6.12,49,49,0,0,1,97.25,0,48.46,48.46,0,0,1,.38,6.12H409.85a42.87,42.87,0,0,0,42.88,42.88Zm0-85.75a42.84,42.84,0,0,0-42.42,36.75h84.84a42.84,42.84,0,0,0-42.42-36.75Z"/><path class="cls-1" d="M612,205.27a36.76,36.76,0,1,1-73.51,0v-6.13a35.45,35.45,0,0,1,10.8-26,35.93,35.93,0,0,1,12.25-8.19,26.91,26.91,0,0,1-5.75-4.52,27.46,27.46,0,0,1,0-38.94,27.56,27.56,0,0,1,47,19.49,26.49,26.49,0,0,1-8,19.45,28.29,28.29,0,0,1-5.82,4.52,36.82,36.82,0,0,1,12.33,8.19,35.57,35.57,0,0,1,10.72,26Zm-67.38,0a30.63,30.63,0,1,0,61.25,0v-6.13a30.63,30.63,0,1,0-61.25,0Zm30.63-85.76a21.44,21.44,0,0,0-15.17,36.6,21.44,21.44,0,1,0,30.33-30.32A20.69,20.69,0,0,0,575.25,119.51Z"/></svg>